# Alias OBJ Model File
# Exported from SketchUp, (c) 2000-2012 Trimble Navigation Limited
# File units = millimeters

mtllib test.mtl

g Mesh1 Model

usemtl FrontColor
v 0 0 -0
vt 0 0
vn 0 -1 -0
v 0 0 -5081
vt 0 200.039
v 3284 0 -5081
vt -129.291 200.039
v 3284 0 -0
vt -129.291 0
f 1/1/1 2/2/1 3/3/1 4/4/1 

vt -200.039 0
vn -1 0 -0
v 0 1250.5 -0
vt 0 49.2323
v 0 1322.5 -0
vt 0 52.0669
v 0 2786 -0
vt 0 109.685
v 0 2786 -5081
vt -200.039 109.685
f 2/5/2 1/1/2 5/6/2 6/7/2 7/8/2 8/9/2 

v 3284 1250.5 -0
vt -129.291 49.2323
vn 0 0 -1
v 3284 1322.5 -0
vt -129.291 52.0669
f 9/10/3 4/4/3 1/1/3 5/6/3 6/7/3 10/11/3 

vt 200.039 0
vn 1 0 -0
v 3284 1250.5 -5081
vt 200.039 49.2323
v 3284 1685.5 -5081
vt 200.039 66.3583
v 3284 1685.5 -4811.38
vt 189.424 66.3583
v 3284 1364.5 -4811.38
vt 189.424 53.7205
v 3284 1364.5 -212.961
vt 8.38431 53.7205
v 3284 1685.5 -212.961
vt 8.38431 66.3583
v 3284 1685.5 -0
vt 0 66.3583
f 3/12/4 11/13/4 12/14/4 13/15/4 14/16/4 15/17/4 16/18/4 17/19/4 10/7/4 9/6/4 4/1/4 

v 235.429 2786 -5081
vt -9.26887 109.685
v 3284 2786 -5081
vt -129.291 109.685
v 3284 2420 -5081
vt -129.291 95.2756
vt -129.291 66.3583
f 3/4/3 2/1/3 8/8/3 18/20/3 19/21/3 20/22/3 12/23/3 11/10/3 

vn 0 1 -0
v 235.429 2786 -0
vt 9.26887 0
v 235.429 2786 -107.975
vt 9.26887 4.25099
v 235.429 2786 -4885.71
vt 9.26887 192.351
vt 9.26887 200.039
f 7/1/5 21/24/5 22/25/5 23/26/5 18/27/5 8/2/5 

v 3284 2786 -0
v 3284 2420 -0
f 10/11/3 6/7/3 7/8/3 21/20/3 24/21/3 25/22/3 17/23/3 

v 3284 1322.5 443.454
vt 129.291 -17.4588
vt 129.291 0
v 0 1322.5 443.454
vt 0 -17.4588
f 26/28/5 10/29/5 6/1/5 27/30/5 

v 3284 1250.5 443.454
vt -17.4588 49.2323
vt -17.4588 52.0669
f 28/31/4 9/6/4 10/7/4 26/32/4 

vt -129.291 -17.4588
v 0 1250.5 443.454
f 9/4/1 28/33/1 29/30/1 5/1/1 

vn 0 0 1
vt 129.291 49.2323
vt 129.291 52.0669
f 29/6/6 28/34/6 26/35/6 27/7/6 

vt 17.4588 49.2323
vt 17.4588 52.0669
f 5/6/2 29/36/2 27/37/2 6/7/2 

v 4011.5 1250.5 -0
vt 157.933 49.2323
v 4011.5 1685.5 -0
vt 157.933 66.3583
vt 129.291 66.3583
f 9/34/6 30/38/6 31/39/6 17/40/6 10/35/6 

v 4011.5 1250.5 -5081
vt -157.933 200.039
vt -157.933 0
f 11/3/1 32/41/1 30/42/1 9/4/1 

vt -157.933 49.2323
v 4011.5 1685.5 -5081
vt -157.933 66.3583
f 32/43/3 11/10/3 12/23/3 33/44/3 

vt 129.291 200.039
vt 129.291 189.424
v 3912.19 1685.5 -4811.38
vt 154.023 189.424
v 4011.5 1685.5 -4811.38
vt 157.933 189.424
vt 157.933 200.039
f 12/45/5 13/46/5 34/47/5 35/48/5 33/49/5 

vt 0 95.2756
vt 200.039 95.2756
f 25/50/4 17/19/4 16/18/4 15/17/4 14/16/4 13/15/4 12/14/4 20/51/4 

vt 157.933 0
v 4011.5 1685.5 -212.961
vt 157.933 8.38431
v 3912.19 1685.5 -212.961
vt 154.023 8.38431
vt 129.291 8.38431
f 31/52/5 36/53/5 37/54/5 16/55/5 17/29/5 

f 30/6/4 32/13/4 33/14/4 35/15/4 36/18/4 31/19/4 

vn 0 1 -2.35487e-16
f 35/48/7 34/47/7 37/54/7 36/53/7 

v 3912.19 1364.5 -4811.38
vt -189.424 53.7205
v 3912.19 1364.5 -212.961
vt -8.38431 53.7205
vt -8.38431 66.3583
vt -189.424 66.3583
f 38/56/2 39/57/2 37/58/2 34/59/2 

f 15/55/5 39/54/5 38/47/5 14/46/5 

vt -154.023 53.7205
vt -129.291 53.7205
vt -154.023 66.3583
f 39/60/3 15/61/3 16/23/3 37/62/3 

vt 129.291 53.7205
vt 154.023 53.7205
vt 154.023 66.3583
f 14/63/6 38/64/6 34/65/6 13/40/6 

v 3955.39 2420 -5081
vt -155.724 200.039
v 3955.39 2420 -0
vt -155.724 0
f 20/3/1 40/66/1 41/67/1 25/4/1 

v 3832.17 2786 -5081
vt -150.873 109.685
v 3955.39 2786 -5081
vt -155.724 109.685
vt -155.724 95.2756
f 20/22/3 19/21/3 42/68/3 43/69/3 40/70/3 

v 3284 2501 -4885.71
vt 192.351 98.4646
v 3284 2501 -107.975
vt 4.25099 98.4646
v 3284 2786 -107.975
vt 4.25099 109.685
vt 200.039 109.685
v 3284 2786 -4885.71
vt 192.351 109.685
f 44/71/4 45/72/4 46/73/4 24/8/4 25/50/4 20/51/4 19/74/4 47/75/4 

v 235.429 2501 -4885.71
v 235.429 2501 -107.975
vt 129.291 4.25099
vt 129.291 192.351
f 48/26/5 49/25/5 45/76/5 44/77/5 

f 49/72/4 48/71/4 23/75/4 22/73/4 

vt 9.26887 98.4646
vn 2.36803e-16 -1.50115e-33 1
vt 129.291 98.4646
vt 129.291 109.685
vt 9.26887 109.685
f 48/78/8 44/79/8 47/80/8 23/81/8 

vn -1.31696e-15 -6.73956e-32 1
v 3832.17 2501 -4885.71
vt 150.873 98.4646
v 3832.17 2786 -4885.71
vt 150.873 109.685
f 44/79/9 50/82/9 51/83/9 47/80/9 

v 3832.17 2501 -107.975
vt 150.873 4.25099
vt 150.873 192.351
f 44/77/5 45/76/5 52/84/5 50/85/5 

vt -150.873 98.4646
vt -129.291 98.4646
v 3832.17 2786 -107.975
f 52/86/3 45/87/3 46/21/3 53/68/3 

vt -9.26887 98.4646
f 45/87/3 49/88/3 22/20/3 46/21/3 

f 24/29/5 46/76/5 22/25/5 21/24/5 

v 3832.17 2786 -0
vt 150.873 0
f 54/89/5 53/84/5 46/76/5 24/29/5 

vt 155.724 200.039
vt 150.873 200.039
v 3955.39 2786 -0
vt 155.724 0
f 43/90/5 42/91/5 51/85/5 53/84/5 54/89/5 55/92/5 

vn -3.29239e-15 1 -6.43904e-32
f 19/45/10 47/77/10 51/85/10 42/91/10 

vn 5.92008e-16 1 -3.1972e-33
f 18/27/11 23/26/11 47/77/11 19/45/11 

vt -192.351 98.4646
vt -4.25099 98.4646
vt -4.25099 109.685
vt -192.351 109.685
f 50/93/2 52/94/2 53/95/2 51/96/2 

vt 155.724 95.2756
vt 155.724 109.685
vt 129.291 95.2756
f 41/97/6 55/98/6 54/83/6 24/80/6 25/99/6 

f 40/51/4 43/74/4 55/8/4 41/50/4 

